<?xml version="1.0" encoding="iso-8859-1"?>
<!-- Uploaded to: SVG Repo, www.svgrepo.com, Generator: SVG Repo Mixer Tools -->
<svg height="40%" width="40%" version="1.1" id="Layer_1" xmlns="http://www.w3.org/2000/svg" xmlns:xlink="http://www.w3.org/1999/xlink" 
	 viewBox="0 0 512 512" xml:space="preserve">
<path style="fill:#F4F170;" d="M482.358,72.758V460.8c0,23.812-19.304,43.116-43.116,43.116H72.758
	c-23.812,0-43.116-19.304-43.116-43.116V72.758c0-23.812,19.304-43.116,43.116-43.116h366.484
	C463.054,29.642,482.358,48.946,482.358,72.758z"/>
<path style="fill:#CC9600;" d="M493.137,478.253v17.108c0,4.724-4.616,8.554-10.31,8.554H29.173c-5.695,0-10.31-3.83-10.31-8.554
	v-17.108c0-4.724,4.616-8.554,10.31-8.554h453.654C488.521,469.698,493.137,473.528,493.137,478.253z"/>
<path style="fill:#FFFF81;" d="M191.326,99.705c0,50.601-41.02,91.621-91.621,91.621S8.084,150.306,8.084,99.705
	S49.105,8.084,99.705,8.084S191.326,49.105,191.326,99.705z"/>
<path style="fill:#FFF145;" d="M148.211,99.705c0,26.789-21.716,48.505-48.505,48.505S51.2,126.494,51.2,99.705
	S72.916,51.2,99.705,51.2S148.211,72.916,148.211,99.705z"/>
<path style="fill:#825E06;" d="M503.916,212.884L503.916,212.884c0,11.906-9.651,21.558-21.558,21.558H342.232
	c-11.906,0-21.558-9.651-21.558-21.558l0,0c0-11.906,9.651-21.558,21.558-21.558h140.126
	C494.264,191.326,503.916,200.978,503.916,212.884z M180.547,180.547H51.2c-23.812,0-43.116,19.304-43.116,43.116l0,0
	c0,11.906,9.651,21.558,21.558,21.558h172.463c11.906,0,21.558-9.651,21.558-21.558l0,0
	C223.663,199.851,204.359,180.547,180.547,180.547z"/>
<path style="fill:#A9A632;" d="M439.242,169.768L439.242,169.768c0,17.86-14.477,32.337-32.337,32.337H105.095
	c-17.86,0-32.337-14.477-32.337-32.337l0,0c0-29.765,24.13-53.895,53.895-53.895h258.695
	C415.112,115.874,439.242,140.003,439.242,169.768z"/>
<path style="fill:#A03D07;" d="M371.146,409.001l32.393,56.686c2.206,3.861,3.366,8.231,3.366,12.677l0,0
	c0,14.112-11.44,25.551-25.551,25.551H270.773c-14.112,0-25.551-11.44-25.551-25.551l0,0c0-4.446,1.161-8.816,3.366-12.677
	l32.393-56.686c4.549-7.961,13.016-12.874,22.185-12.874h45.797C358.131,396.126,366.597,401.039,371.146,409.001z"/>
<path style="fill:#D3842F;" d="M396.126,439.242h27.717c8.494,0,16.258,4.799,20.056,12.396l9.913,19.826
	c1.556,3.114,2.367,6.547,2.367,10.029l0,0c0,12.385-10.04,22.424-22.425,22.424h-47.543c-12.385,0-22.425-10.039-22.425-22.425l0,0
	c0-3.482,0.811-6.915,2.367-10.029l9.914-19.826C379.868,444.041,387.632,439.242,396.126,439.242z"/>
<path d="M441.937,8.084c0-4.465,3.618-8.084,8.084-8.084c10.823,0,20.517,4.935,26.947,12.671C483.399,4.935,493.093,0,503.916,0
	C508.382,0,512,3.62,512,8.084s-3.618,8.084-8.084,8.084c-10.401,0-18.863,8.463-18.863,18.863c0,4.465-3.618,8.084-8.084,8.084
	c-4.466,0-8.084-3.62-8.084-8.084c0-10.401-8.463-18.863-18.863-18.863C445.555,16.168,441.937,12.549,441.937,8.084z
	 M29.851,167.074c1.85,0,3.709-0.632,5.23-1.923c3.403-2.891,3.818-7.993,0.927-11.394c-12.794-15.063-19.84-34.258-19.84-54.051
	c0-46.062,37.475-83.537,83.537-83.537c40.556,0,75.143,28.929,82.24,68.785c0.781,4.396,4.985,7.322,9.376,6.542
	c4.396-0.783,7.325-4.981,6.542-9.377C189.39,34.537,148.109,0,99.705,0C44.727,0,0,44.727,0,99.705
	c0,23.624,8.412,46.537,23.687,64.517C25.285,166.106,27.561,167.074,29.851,167.074z M99.705,59.284
	c20.638,0,37.911,15.443,40.174,35.921c0.489,4.437,4.461,7.637,8.923,7.146c4.438-0.49,7.638-4.486,7.146-8.924
	c-3.17-28.683-27.349-50.312-56.243-50.312c-31.203,0-56.589,25.385-56.589,56.589c0,12.916,4.468,25.551,12.579,35.575
	c1.597,1.975,3.932,3,6.29,3c1.785,0,3.583-0.59,5.08-1.8c3.471-2.808,4.008-7.899,1.199-11.37
	c-5.873-7.26-8.979-16.044-8.979-25.405C59.284,77.417,77.417,59.284,99.705,59.284z M264.084,285.642v136.632l9.877-17.284
	c5.974-10.453,17.164-16.948,29.204-16.948h45.795c12.04,0,23.231,6.493,29.204,16.948l4.963,8.684
	c2.216,3.877,0.869,8.815-3.008,11.03c-3.877,2.214-8.814,0.869-11.029-3.008l-4.963-8.684c-3.102-5.428-8.914-8.801-15.166-8.801
	h-45.795c-6.253,0-12.064,3.373-15.166,8.801l-32.393,56.686c-1.505,2.634-2.301,5.631-2.301,8.666
	c0,9.632,7.836,17.467,17.467,17.467h88.518c-2.287-4.277-3.585-9.16-3.585-14.34c0-4.711,1.113-9.429,3.221-13.644l9.912-19.826
	c5.202-10.402,15.657-16.864,27.287-16.864h27.717c11.63,0,22.087,6.462,27.287,16.865l9.912,19.825
	c2.107,4.215,3.221,8.932,3.221,13.644c0,5.18-1.298,10.062-3.585,14.34h24.374v-24.253c0-4.465,3.618-8.084,8.084-8.084
	s8.084,3.62,8.084,8.084v24.253h2.695c4.466,0,8.084,3.62,8.084,8.084S508.382,512,503.916,512h-75.453
	c-4.466,0-8.084-3.62-8.084-8.084s3.618-8.084,8.084-8.084h5.294c7.906,0,14.339-6.433,14.339-14.34
	c0-2.215-0.523-4.432-1.513-6.413l-9.912-19.826c-2.445-4.889-7.359-7.927-12.826-7.927h-27.718c-5.466,0-10.381,3.038-12.826,7.927
	l-9.912,19.825c-0.991,1.981-1.513,4.198-1.513,6.413c0,7.907,6.433,14.34,14.34,14.34h9.912c4.466,0,8.084,3.62,8.084,8.084
	c0,4.465-3.618,8.084-8.084,8.084H8.084c-4.466,0-8.084-3.62-8.084-8.084c0-4.465,3.618-8.084,8.084-8.084h2.695v-24.253
	c0-4.465,3.618-8.084,8.084-8.084s8.084,3.62,8.084,8.084v24.254h16.168v-24.253c0-4.465,3.618-8.084,8.084-8.084
	s8.084,3.62,8.084,8.084v24.253h16.168v-24.253c0-4.465,3.618-8.084,8.084-8.084c4.466,0,8.084,3.62,8.084,8.084v24.253h16.168
	v-24.253c0-4.465,3.618-8.084,8.084-8.084s8.084,3.62,8.084,8.084v24.253h16.168v-24.253c0-4.465,3.618-8.084,8.084-8.084
	c4.466,0,8.084,3.62,8.084,8.084v24.253h16.168v-24.253c0-4.465,3.618-8.084,8.084-8.084c4.466,0,8.084,3.62,8.084,8.084v24.253
	H204.8v-24.253c0-4.465,3.618-8.084,8.084-8.084s8.084,3.62,8.084,8.084v24.253h21.069c-3.108-5.094-4.9-11.075-4.9-17.467
	c0-5.844,1.533-11.615,4.431-16.688l6.364-11.137c-0.012-0.171-0.017-0.345-0.017-0.518V317.979h-88.926
	c-28.231,0-51.2-22.969-51.2-51.2v-13.474H29.642C13.298,253.305,0,240.008,0,223.663c0-28.231,22.969-51.2,51.2-51.2h13.562
	c-0.059-0.891-0.088-1.789-0.088-2.695c0-34.176,27.803-61.979,61.979-61.979h258.695c34.176,0,61.979,27.803,61.979,61.979
	c0,22.289-18.132,40.421-40.421,40.421h-21.558c-4.466,0-8.084-3.62-8.084-8.084c0-4.465,3.618-8.084,8.084-8.084h21.558
	c13.372,0,24.253-10.879,24.253-24.253c0-25.26-20.55-45.811-45.811-45.811H126.653c-25.26,0-45.811,20.55-45.811,45.811
	c0,13.373,10.88,24.253,24.253,24.253h21.558c4.466,0,8.084,3.62,8.084,8.084c0,4.465-3.618,8.084-8.084,8.084h-21.558
	c-15.48,0-28.955-8.747-35.743-21.558H51.2c-19.317,0-35.032,15.716-35.032,35.032c0,7.43,6.044,13.474,13.474,13.474h172.463
	c7.43,0,13.474-6.044,13.474-13.474c0-4.645-0.921-9.23-2.686-13.474h-53.903c-4.466,0-8.084-3.62-8.084-8.084
	c0-4.465,3.618-8.084,8.084-8.084h164.43c0.1-0.002,0.197-0.001,0.292,0h29.299c4.466,0,8.084,3.62,8.084,8.084
	c0,4.465-3.618,8.084-8.084,8.084h-23.982c-0.179,0.883-0.271,1.785-0.271,2.695c0,7.43,6.044,13.474,13.474,13.474h140.126
	c7.43,0,13.474-6.044,13.474-13.474s-6.044-13.474-13.474-13.474h-19.941c-4.466,0-8.084-3.62-8.084-8.084
	c0-4.465,3.618-8.084,8.084-8.084h19.941c16.344,0,29.642,13.297,29.642,29.642s-13.298,29.642-29.642,29.642H425.13
	c-3.886,24.405-25.08,43.116-50.562,43.116H264.084z M248.376,210.189h-18.43c1.19,4.371,1.801,8.903,1.801,13.474
	c0,16.345-13.298,29.642-29.642,29.642h-78.147v13.474c0,19.316,15.715,35.032,35.032,35.032h88.926v-88.926
	C247.916,211.94,248.077,211.032,248.376,210.189z M264.084,212.884v56.589h110.484c16.535,0,30.431-11.515,34.091-26.947h-66.427
	c-16.344,0-29.642-13.297-29.642-29.642c0-0.901,0.041-1.801,0.122-2.695h-49.087C263.923,211.032,264.084,211.94,264.084,212.884z"
	/>
</svg>